<svg version="1" xmlns="http://www.w3.org/2000/svg" width="1365.333" height="1365.333" viewBox="0 0 1024.000000 1024.000000"><path d="M.4 10.5c-.6 1.4.3 64.2 1 75.5.2 2.5.6 10.8 1 18.5.4 7.7.9 16.2 1.2 19 .3 2.7.7 8.6.9 13 .2 4.4.7 10.5 1 13.5.6 6.8 1.2 13.2 2 23 .3 4.1.8 8.8 1 10.5.2 1.6.6 6.6 1 11 .3 4.4.8 9.1 1 10.5.2 1.4.7 5 1 8 .7 6.3 2.3 20.8 3 26 .2 1.9.7 6 1.1 9 1.3 11.4 2.2 19 2.9 23 .2 1.4.7 5 1 8 .4 3 .9 6.2 1 7 .1.8.6 4 1 7 .3 3 .8 6.6 1 8 .5 3 3.3 20.9 4.6 30 .6 3.6 1.2 7.6 1.4 9 .2 1.4 1.1 6.8 2 12 .9 5.2 1.8 10.6 2 12 .2 1.4.6 4.1 1 6 .3 1.9 1.7 9.8 3 17.5 1.4 7.7 2.7 15.1 3 16.5.3 1.4.8 3.8 1.1 5.5.4 2.7 6.7 35.4 7.9 41.5.3 1.4.8 3.8 1.1 5.5.3 1.6 3 14.5 6 28.5l5.5 25.5-.8 12c-1.4 22.7-.8 64.6 1.2 77.9.2 1.2.6 4.8 1 8.1.5 5.2 4 27.7 5 32.4 6 28.7 16.9 65.5 25 83.6.7 1.6 2.5 5.9 4 9.5 7.9 19.2 24.8 50.5 38 70.5 5.6 8.5 22.2 31.6 23.4 32.5.3.3 1.8 2.1 3.2 4 1.5 1.9 3.7 4.6 4.9 6 1.2 1.4 4.4 5.2 7.3 8.5 9.8 11.4 39.3 40.2 51.8 50.6 17.9 14.8 52 39 59.9 42.6.8.4 4.8 2.6 8.8 5 21.6 12.8 56.7 28.3 84.7 37.5 23.4 7.6 61.6 16.7 77.7 18.3 2.4.3 5.4.7 6.8.9 1.4.3 5.4.8 9 1.2 3.6.3 7.2.8 8.1.9 1.7.3 27.5 1.8 31.9 1.8 8.8 0 32.5-1.7 45-3.2 59.4-7.5 120.7-27.5 169.8-55.5 3.5-2 6.6-3.6 6.8-3.6 1.5 0 44.3-28.5 46.4-30.9.3-.4 3.2-2.6 6.5-5.1 3.3-2.5 6.9-5.2 8-6.1 45.2-38.1 78.5-76.8 106.7-124.2 8.2-13.8 20.9-38.7 26.3-51.7 1.5-3.6 3.3-7.9 4-9.5 4.2-9.4 14.6-41 19.5-59.5 5.2-19.7 10.7-52.9 12.7-77.5 1-11.9 1-51 0-65.5-.8-11.3-.8-11.9 3.7-32.5 2.5-11.6 4.7-22.1 5-23.5.5-2.6 2.1-10.6 3.1-15 .5-2.5 3.3-17.3 4.2-22 .2-1.4 1.5-7.9 2.8-14.5 2.1-10.8 5.5-29.3 6.9-38.5.3-1.9.8-4.6 1.1-6 1.2-6.3 1.8-9.5 2.9-17.5.9-5.8 1.9-12.2 2.2-14 .9-4.3 1.3-7.4 2.9-18 .9-6.1 1.8-12.1 2-13.5.2-1.4.9-6.1 1.5-10.5s1.3-9.1 1.5-10.5c.2-1.4 1.1-7.9 1.9-14.5.9-6.6 1.9-13.8 2.2-16 .3-2.2.7-5.8.9-8 .3-2.2.7-5.6.9-7.5.5-3.8 1.3-10.7 2.1-18 .3-2.5.7-6.1 1-8 .2-1.9.7-6.9 1.1-11 .3-4.1.8-8.2.9-9.1.2-.9.6-5.6 1-10.5.3-4.9.8-10 1-11.4.2-1.4.7-6.3 1-11 .4-4.7.8-10.1 1-12 .2-1.9.6-7.8 1-13 .3-5.2.8-11.8 1-14.5.2-2.8.7-10.9 1.1-18 .4-7.2.8-15.3 1-18 .1-2.8.6-20.9 1-40.3.7-35.9.7-35.6-2.6-35.4-8.9.4-22.5 1.4-23 1.7-.3.1-4.5.6-9.5 1-4.9.4-9.2.8-9.5 1-.3.1-3.2.6-6.5.9-3.3.4-6.7.9-7.5 1.1-.8.2-3.7.6-6.5 1-2.7.3-10.6 1.5-17.5 2.6s-13.8 2.2-15.5 2.5c-6.9 1.1-50.3 9.6-53.5 10.4-1.9.5-4.9 1.2-6.7 1.5-1.7.3-5.8 1.2-9 2s-6.9 1.6-8.3 1.9c-1.4.2-4.3.9-6.5 1.4-3.6 1-15.8 3.9-19.5 4.7-11.7 2.5-75.1 19.6-93 25-4.7 1.5-9.2 2.8-10 3-3.1.6-46.4 13.9-54 16.5-1.4.5-13 4.3-25.8 8.5l-23.4 7.6-11.1-2.6C590.5 98.2 586 97.3 578 96c-3.6-.6-7.6-1.3-9-1.5-2.6-.5-15.9-2.3-22-3-22.1-2.6-49-2.6-71 .1-6.3.8-30 4.3-33 4.9-1.4.3-5 1-8 1.5-3 .6-7.1 1.4-9 2-1.9.5-6.7 1.6-10.7 2.5l-7.2 1.7-25.8-8.6c-48.8-16.1-92.8-29.2-139.7-41.7-12.5-3.3-23.6-6.2-24.5-6.4-.9-.2-10.8-2.6-22.1-5.4-18-4.4-51.8-12-60.5-13.5-1.6-.3-3.9-.8-5-1-2-.4-18.1-3.4-22-4.2-8.8-1.6-21-3.7-26-4.5-3.3-.5-7.1-1.1-8.5-1.3-1.4-.2-4.6-.7-7.1-1-2.5-.4-5.7-.9-7-1.1-4.5-.8-18.4-2.5-24.9-3.1-3.6-.3-6.7-.8-7-.9-.3-.2-6.1-.6-13-1S2.2 9.6 1.7 9.3c-.4-.2-1 .3-1.3 1.2zm41.9 113.2c3.1 5.4 6.5 11.4 7.6 13.3 1.2 1.9 2.4 4.2 2.8 5 .4.8 4.4 8 8.8 16 4.5 8 9.3 16.5 10.7 19 1.4 2.5 8.8 15.7 16.5 29.5 7.8 13.7 15.1 26.8 16.3 29 2.2 3.8 23.5 42.1 28.8 51.5 1.4 2.5 3 5.2 3.5 6.1.8 1.3-.3 3.7-5 11-17.8 27.7-35.4 63.7-46.3 94.9-1.8 5.2-3.6 9.9-4 10.3-1.4 1.6-13.3-26.1-19.8-46.3-3.6-11.2-10.6-36.4-11.8-42.3-.2-1.2-.6-3.3-.9-4.7-2.2-10.5-3.6-17.6-4.1-21-.2-1.9-.8-5.8-1.4-8.5-.9-5.1-2.5-16-3.6-25-.3-2.8-.7-6.1-.9-7.5-.2-1.4-.7-6.1-1.1-10.5-.3-4.4-.8-9.4-.9-11-1.5-14.8-1.9-30.7-1.9-64.5 0-35.8.3-54 .9-54 .2 0 2.8 4.4 5.8 9.7zm945.8-2c1.1 28.6.1 101.2-1.6 112.3-.2 1.4-.6 5.4-1 9-.7 8.9-1.5 16-2 19-.2 1.4-.7 5-1 8-.4 3-1.5 10.4-2.5 16.5-1 6-2.1 12.6-2.5 14.5-3.6 21.8-12.6 54.7-21.1 77.5-5.7 15.1-13.5 31.8-14.4 30.8-.4-.4-1.3-2.6-1.9-4.8-.7-2.2-1.6-4.9-2.1-6-.4-1.1-3.2-8.1-6-15.5-9.4-24.2-25.8-56.3-40.2-78.7-5.3-8.2-5.8-9.4-4.7-11.5 1.3-2.6 35.6-63.9 50.9-91.3 1.3-2.2 7.3-13 13.5-24 6.1-11 12.2-21.8 13.5-24 1.2-2.2 5.9-10.5 10.3-18.5 8.6-15.7 11.7-21 12.2-21 .1 0 .4 3.5.6 7.7zm-455.6 32.8c3.9.3 9.7 1 13 1.5 3.3.5 8.3 1.2 11 1.5 2.8.4 5.7.8 6.5 1 .8.2 3.1.7 5 1 37.6 6.2 91.1 25.7 123.3 44.8 4.3 2.6 8 4.7 8.3 4.7 1 0 33.7 22.5 39.9 27.5 17.9 14.3 21.3 17.3 37 33 11.6 11.5 16.7 16.9 24 25.6 4.2 4.9 18.3 23.7 23.7 31.4 18.3 26.4 36.8 63.1 48.1 95.5 6.6 19 14.5 50.5 16.3 65.5.3 2.2.7 4.7.9 5.5.2.8.7 4.2 1 7.5.4 3.3.8 7.1 1.1 8.5 3.3 20.5 2.2 78.3-2 100.5-.2 1.1-.7 4.5-1.1 7.5-.4 3-1.6 9.5-2.7 14.5-1 4.9-2.1 9.9-2.3 10.9-9.2 42.3-30.7 91.9-56.8 131.1-5.5 8.2-20.2 28.3-21.6 29.5-.3.3-2.6 3-5.1 6-9.1 11.3-29.4 32-41 42-3.5 3-7.1 6.2-7.9 7-.9.8-3.7 3.1-6.1 5-2.5 1.9-4.9 3.9-5.5 4.3-7.5 6.3-28 20.3-41 28-1 .7-3.7 2.3-6 3.6-8.4 5.1-35.6 18.2-47.6 22.9-27.5 11-61.7 20.7-83.9 23.7-2.5.3-5.2.8-6 1-.8.2-3.7.6-6.5 1-2.7.3-6.6.8-8.5 1-24.3 3.1-46.3 2.2-77.5-3.1-4.9-.9-10.3-1.8-12-2.1-19.7-3.1-61.5-16.4-84.5-27-24.4-11.2-58.1-30.6-71-41-.8-.7-4.2-3.2-7.5-5.7s-6.6-5-7.3-5.6c-.7-.7-4.1-3.5-7.5-6.3-31.8-26.2-63.3-63.3-86.2-101.2-9.6-16-29.1-56.3-31.1-64.4-.2-.9-2-6.1-3.9-11.5-3.6-10.1-10.9-35.6-11.9-41.7-.3-1.9-.8-4.5-1.1-5.9-.9-4-4.4-24.1-5-28.5-2.3-18.1-2.9-28.3-3-52.5 0-25.9 1.2-43.3 4-59 .2-.8.6-3.8.9-6.5.4-2.8 1.8-10.2 3.2-16.5 12.7-59.1 35.7-109.8 71.4-157.5 19.2-25.6 42.3-49.8 66.5-69.6 45.8-37.4 98.6-64 156-78.3 10.4-2.6 33.7-7.1 41.5-8 21.7-2.6 30.3-3.2 41.5-3 5.5.1 13.2.5 17 .9z"/></svg>